<?xml version="1.0" encoding="utf-8"?>
<!-- Generator: Adobe Illustrator 23.0.1, SVG Export Plug-In . SVG Version: 6.00 Build 0)  -->
<svg version="1.1" id="Layer_1" xmlns="http://www.w3.org/2000/svg" xmlns:xlink="http://www.w3.org/1999/xlink" x="0px" y="0px"
	 viewBox="0 0 863.1 487.6" style="enable-background:new 0 0 863.1 487.6;" xml:space="preserve">
<style type="text/css">
	.st0{fill:#FFFFFF;}
	.st1{fill:#FFCB0C;}
</style>
<path class="st0" d="M99,317.6c-11.3,0.3-22.1-4.6-29.4-13.2C62,296,58,285,58.3,273.7c-0.4-11.4,4-22.5,12-30.7
	c7.4-8.9,18.4-14,30-13.8c14.4,0,27,7,37.6,20.7v-27.5c-10.6-8-23.7-12.3-37-12c-16.9-0.4-33.2,6.2-45,18.3
	c-12.3,11.7-19.1,28-19,45c0,18.2,6.4,33.2,18.3,45.1c12.2,11.9,28.6,18.5,45.7,18.2c13.7-0.3,27-4.7,38.3-12.5l-0.6-28.2
	C129.8,309.6,114.9,317.6,99,317.6z M258.3,229.8c-9.5-11.6-23.4-18.6-38.3-19.4h-2.5c-17.5,0-32,6.2-42.6,18.8
	c-10.2,12.5-15.5,28.3-15,44.5c0,17.5,5,32,15,44c10.3,12.6,25.8,19.7,42,19.3h3c15-0.5,29.1-7.6,38.4-19.4v16.3h21.3V213.5h-21.3
	V229.8L258.3,229.8z M249.5,304.4c-7.2,8.8-18.1,13.6-29.5,13.2c-11.5,0.5-22.5-4.7-29.4-13.8c-6.6-9.1-9.9-20.2-9.4-31.4
	c0-11.9,3-21.9,10-30c7.5-8.8,17-13.2,28.2-13.2h0.6c12,0.6,21.4,4.4,28.9,12.5c7,8.7,10.8,19.6,10.6,30.7
	C259.9,283.9,256.4,295.2,249.5,304.4L249.5,304.4z M314.7,123.2h20.7v210.6h-20.7C314.7,333.8,314.7,123.2,314.7,123.2z
	 M371.7,123.2h20.7v210.6h-20.7C371.7,333.8,371.7,123.2,371.7,123.2z M490.2,210.4H487c-14.9,0.7-28.8,7.7-38.2,19.4V123.2h-20.7
	v210.7h20.7l0.6-16.3c8.7,12.1,22.7,19.3,37.6,19.4h3c17,0,30.8-6.3,42-19.4c10.9-12,15.9-27,15.9-44c0-17.6-5-32-15.7-44.5
	C521.8,216.8,506.3,209.8,490.2,210.4l-0.1,0L490.2,210.4z M516.6,304.4c-7.3,8.8-18.2,13.7-29.6,13.2c-12.5,0-22-4.4-29.5-13.8
	c-6.5-9.2-9.8-20.2-9.5-31.4c-0.4-10.9,3.1-21.5,10-30c7.6-8.8,17-13.2,28.3-13.2h0.6c11.9,0.6,21.3,4.4,28.8,12.5
	c7.1,8.6,10.9,19.5,10.7,30.7c0.1,11.5-3.4,22.7-10,32H516.6z M633.7,210.4c-34.5-0.1-62.6,27.8-62.7,62.3c0,0.3,0,0.6,0,0.9
	c-0.3,16.7,6.3,32.8,18.2,44.5c11.6,12.1,27.7,18.9,44.4,18.8c17.5,0,32.6-6.3,44.5-18.8c12.2-11.5,19.1-27.7,18.9-44.5
	c0.3-16.7-6.3-32.8-18.2-44.5c-11.8-12.2-28.1-19-45.1-18.8L633.7,210.4L633.7,210.4z M664.5,304.4c-7.8,8.7-19,13.5-30.7,13.2
	c-12,0-22-4.4-30.1-12.6c-8-8.4-12.3-19.7-12-31.3c0-12.5,3.8-23.2,12-31.3c7.6-8.5,18.6-13.4,30-13.2c11.7-0.3,23,4.5,30.8,13.2
	C680.3,260,680.3,286.8,664.5,304.4L664.5,304.4z M776,269.9l44-56.4h-25.8L763,254.4l-31.3-40.8h-25.1l43.1,56.4l-50.6,64h26.2
	l37.7-49l37.6,49h25.7l-50.2-64L776,269.9z"/>
<path class="st1" d="M633.8,33.6L623,44.4l-70.7,71.3l21.2,20.7c0,0,44.5-45,60.3-60.3l60.2,60.3l20.6-20.7l-80.9-82L633.8,33.6z"/>
<path class="st0" d="M52.4,418.9h-4.6l-7.2,34.3H63l0.8-3.9h-18l6.5-30.4H52.4z M79,422.9h20.2l0.8-4H75.2L68,453.1h26.2l0.8-3.9
	H73.5l2.5-12h19.6l0.9-3.8H76.8l2.2-10.7V422.9z M116.9,418.9l-19.5,34.3h5l5.6-9.9h13.9l1.6,10h4.5l-5.7-34.4H116.9z M109.9,439.9
	l5.7-10.3c1.3-2.3,2.4-4.6,3.4-7c0,2.3,0.5,5.2,1,8.6l1.3,8.6L109.9,439.9L109.9,439.9L109.9,439.9z M160.9,422
	c-1.3-1.2-2.9-2.1-4.7-2.6c-1.3-0.3-3.2-0.5-5.7-0.5h-10.3l-7.2,34.3h12.4c2.2,0,4,0,5.6-0.5c3.8-0.8,7.2-3,9.5-6.2
	c4.3-5.7,5.6-13.1,3.5-19.9c-0.5-1.8-1.6-3.4-3-4.7v0.1L160.9,422z M159.3,439.4c-1,3.2-3,6-5.8,8c-1,0.6-2,1-3.1,1.3
	c-2,0.4-4,0.6-6.5,0.6h-5.5l5.6-26.5h6c2.4,0,4,0.2,5.2,0.5c1.5,0.5,2.8,1.5,3.7,3s1.5,3.6,1.5,6.4
	C160.4,435,160.1,437.2,159.3,439.4L159.3,439.4L159.3,439.4z M216,418.9l-12,21.3c-2.3,4-4,7-5,9.4c0-2.7-0.3-5.5-0.8-8.5
	l-3.4-22.2H189l-7.1,34.3h4.4l4.6-21.9c0.4-1.7,0.8-4,1-7l0.8,7l3.5,22h4.4l12.8-22.5c1.4-2.6,2.7-5,3.7-7.3
	c-1.4,4.3-2.6,8.6-3.6,13l-3.6,16.7h4.5l7.2-34.3H216L216,418.9z M238.8,418.9l-19.5,34.3h5l5.6-9.9h13.9l1.6,10h4.5l-5.7-34.4
	H238.8L238.8,418.9z M231.8,439.9l5.7-10.3c1.2-2.2,2.4-4.5,3.4-7c0,2.3,0.5,5.2,1,8.6l1.3,8.6H232L231.8,439.9L231.8,439.9z
	 M284.6,418.9l-4.2,20.2l-1.6,9c-1.6-5.6-3.7-11-6.2-16.3l-5.8-13h-4.5l-7.2,34.4h4.5l4.4-20.8l1.3-8.3c1,3.2,2.2,6.3,3.6,9.3
	l8.5,19.8h4.5l7.2-34.3H284.6L284.6,418.9z M306.4,418.9L287,453.2h5l5.5-9.9h14l1.6,10h4.4l-5.6-34.4H306.4L306.4,418.9z
	 M299.4,439.9l5.7-10.3c1.3-2.3,2.5-4.6,3.5-7c0,2.3,0.4,5.2,1,8.6l1.3,8.6h-11.4L299.4,439.9L299.4,439.9z M336.9,424.1
	c2.1-1.3,4.5-2,7-2c2.3,0,4.3,0.6,5.8,2c1.5,1.2,2.5,3,3,5.3l4.5-0.5c-0.5-2.3-1.2-4.3-2.2-5.7c-1-1.5-2.5-2.7-4.5-3.6
	c-5.2-2.1-11-1.7-15.8,1.1c-2.8,1.6-5,4.1-7,7.5c-1.8,3.5-2.7,7.4-2.6,11.3c0,4,1,7.3,3,9.8c2.6,3,6.3,4.5,11.3,4.5
	c4.8-0.1,9.5-1.4,13.6-4l3-14h-15l-1,4h10.5l-1.5,7.3c-3.4,2-6.7,3-9.6,3c-3,0-5.4-1-7-2.7c-1.8-1.8-2.6-4.4-2.6-7.8
	c0-3.5,0.6-6.6,1.9-9.3S334.7,425.5,336.9,424.1L336.9,424.1z M360.4,453.2h26.2l0.8-3.9h-21.6l2.5-12H388l0.8-3.8H369l2.3-10.7
	h20.2l0.8-4h-24.8L360.4,453.2L360.4,453.2z M414.8,440.2c-2.2,4-3.8,7-4.8,9.4c-0.1-2.7-0.4-5.5-1-8.5l-3.3-22.2H400l-7.2,34.3h4.5
	l4.6-21.9c0.4-1.7,0.7-4,1-7l0.8,7l3.5,22h4.4l12.8-22.5c1.3-2.4,2.5-4.8,3.6-7.3c-1.5,4.8-2.7,9.2-3.5,13l-3.6,16.7h4.5l7.2-34.3
	h-5.8L414.8,440.2L414.8,440.2z M433.4,453.2h26.2l0.8-3.9h-21.6l2.4-12H461l0.8-3.8H442l2.2-10.7h20.2l0.8-4h-24.8L433.4,453.2
	L433.4,453.2z M491.3,439.2c-0.7,3-1.2,6-1.7,9c-1.5-5.7-3.6-11.1-6.1-16.4l-5.9-13h-4.5l-7.1,34.4h4.5l4.4-20.8
	c0.6-3.3,1-6,1.2-8.3c1,3.2,2.2,6.3,3.6,9.3l8.5,19.8h4.5l7.3-34.3h-4.5l-4.3,20.2L491.3,439.2z M504.7,422.8h11.4l-6.4,30.4h4.6
	l6.4-30.4h11.2l0.8-4h-27L504.7,422.8L504.7,422.8z M569.2,419.8c-4.3-1.8-9.1-1.9-13.4-0.3c-2,0.6-3.3,1.8-4.3,3.2s-1.4,3-1.4,4.8
	c0,1.5,0.4,3,1,4c0.9,1.4,2.1,2.5,3.5,3.4c1.7,1,3.6,2,5.5,2.7c3.5,1.5,5.7,2.6,6.4,3.5c0.8,1,1.2,2,1.2,3c0,1.5-0.7,3-2.2,4.1
	c-1.4,1.2-3.5,1.9-6.3,1.9c-2,0-3.6-0.4-5-1c-1.3-0.5-2.3-1.4-3-2.5c-0.6-1-1-2.4-1-3.7v-1.2l-4.4,0.4c0,4.4,1.3,7.5,3.7,9.2
	c2.5,1.7,5.7,2.5,9.6,2.5c2.5,0,4.8-0.4,6.8-1.3c2-0.9,3.6-2,4.7-3.6c1.1-1.5,1.7-3.3,1.7-5.2c0-2.9-1.5-5.6-4-7
	c-1.6-1-3.3-1.8-5-2.6c-3-1.3-5-2.2-5.8-2.7c-0.9-0.4-1.7-1.1-2.3-2c-1.2-1.8-0.9-4.3,0.9-5.6c1.7-1.2,3.7-1.8,5.8-1.7
	c1.5,0,2.7,0.2,3.9,0.6c1.2,0.4,2,1,2.7,1.6c0.7,0.6,1,1.5,1.5,2.4l0.2,2.3l4.4-0.3v-0.8c-0.1-3.5-2.2-6.7-5.4-8.2L569.2,419.8z
	 M597.5,418.3c-5,0-9.7,2-13,5.7c-5.4,6.2-6.7,14.9-3.4,22.4c1,2.3,2.8,4.1,5,5.5c2.3,1.4,4.9,2.1,7.6,2c4.7,0,9.1-2,12.4-5.4
	c1.6-1.5,2.9-3.4,3.9-5.5c1.3-2.9,2-6,2-9.3c0-4.7-1.3-8.4-4-11.2C605.3,419.7,601.4,418.1,597.5,418.3z M606.4,439.8
	c-0.8,2.2-1.8,4-3,5.5c-1.2,1.4-2.7,2.6-4.3,3.5c-3.3,1.7-7.2,1.7-10.4-0.2c-1.6-1-2.8-2.3-3.6-4c-0.9-1.7-1.4-3.5-1.4-5.5
	c0-5.2,1.4-9.3,4.3-12.4c2.7-3,5.9-4.6,9.5-4.6c2.7-0.1,5.2,1,7,3c2,2,3,4.8,3,8.2C607.5,435.4,607.1,437.6,606.4,439.8z
	 M626.4,418.9h-4.7l-7,34.3H637l0.8-3.9H620L626.4,418.9L626.4,418.9z M667.6,437.9c-0.7,3.3-1.5,5.8-2.4,7.4
	c-0.9,1.6-2,2.7-3.6,3.5c-1.5,0.8-3.1,1.2-4.8,1.2c-2.2,0-4-0.5-5.5-1.7c-1.4-1-2.2-2.7-2.2-4.4l0.5-4l4.4-21h-4.6l-4,18.7
	c-0.5,3-1,5-1,6.2c0,3.8,2.3,7.3,5.8,8.7c2,1,4.2,1.3,6.8,1.3c2.5,0.1,5-0.6,7.2-1.8c2-1.2,3.7-2.8,4.8-4.8s2.1-4.7,2.9-8.2l4.2-20
	h-4.7l-4,18.8L667.6,437.9L667.6,437.9z M709,418.9h-27.1l-1,4h11.4l-6.3,30.3h4.6l6.3-30.4H708L709,418.9L709,418.9z M707.6,453.2
	h4.6l7.2-34.3h-4.6L707.6,453.2z M741.2,418.3c-4.9,0-9.6,2-12.8,5.7c-5.5,6.1-7,14.9-3.7,22.4c2.4,4.8,7.4,7.7,12.7,7.5
	c4.7,0,9.2-1.9,12.5-5.4c3.7-4,5.9-9.2,5.8-14.8c0-4.7-1.3-8.4-4-11.2C748.9,419.7,745.1,418.2,741.2,418.3z M750.1,439.8
	c-1.2,3.9-3.8,7.1-7.4,9c-3.2,1.7-7,1.6-10.1-0.2c-1.7-1-3-2.3-3.8-4c-2.3-6.1-1.2-12.9,2.9-17.9c2.7-3,6-4.6,9.5-4.6
	c2.8,0,5.2,1,7,3c2,2,3,4.8,3,8.2C751.2,435.4,750.7,437.6,750.1,439.8L750.1,439.8z M784.1,439.1l-1.6,9c-1.6-5.6-3.7-11-6.2-16.3
	l-5.8-13H766l-7.2,34.4h4.5l4.4-20.8l1.3-8.3c1,3.2,2.2,6.3,3.6,9.3l8.5,19.8h4.5l7.2-34.3h-4.5L784.1,439.1L784.1,439.1z
	 M811.1,422.1c1.5,0,2.7,0.2,3.9,0.6c1.2,0.4,2,1,2.7,1.6c0.7,0.6,1,1.5,1.3,2.4c0.2,0.6,0.4,1.3,0.4,2.3l4.3-0.3v-0.8
	c0-3.5-2.1-6.7-5.3-8.2c-2.3-1-4.7-1.5-7.2-1.4c-2.3,0-4.5,0.5-6.3,1.2s-3.3,1.8-4.3,3.3s-1.4,3-1.4,4.8c0,1.4,0.3,2.8,1,4
	c0.9,1.3,2.1,2.5,3.5,3.3c1.8,1,3.7,2,5.5,2.8c3.5,1.5,5.7,2.6,6.4,3.5c0.8,1,1.2,1.9,1.2,3c0,1.5-0.7,2.9-2.2,4
	c-1.4,1.3-3.5,1.9-6.3,1.9c-2,0-3.6-0.3-5-1c-1.3-0.5-2.3-1.4-3-2.5c-0.6-1-1-2.3-1-3.6l0.2-1.2l-4.5,0.4c0,4.4,1.2,7.5,3.6,9.2
	c2.5,1.7,5.7,2.5,9.5,2.5c2.6,0,5-0.4,7-1.3c2-1,3.5-2,4.6-3.7c1.1-1.5,1.7-3.3,1.7-5.1c0.1-2.8-1.4-5.5-3.8-7c-1-0.6-2.6-1.5-5-2.6
	l-6-2.8c-1-0.6-2-1.2-2.2-2c-0.3-0.6-0.7-1.2-0.7-2.1c0-1.4,0.5-2.5,1.6-3.4C807,422.6,809,422,811.1,422.1L811.1,422.1z"/>
</svg>
